<svg width="44" height="46" viewBox="0 0 44 46" fill="none" xmlns="http://www.w3.org/2000/svg">
<path d="M16.1176 39.4643C6 42.7584 6 33.5819 2 32.4054M30.2353 44.1701V35.9349C30.2353 33.5819 30.4706 32.6407 29.0588 31.229C35.6471 30.5231 42 27.9349 42 17.1113C41.9971 14.2995 40.9001 11.5991 38.9412 9.58192C39.8599 7.13948 39.7753 4.4328 38.7059 2.0525C38.7059 2.0525 36.1176 1.34662 30.4706 5.11133C25.6876 3.86565 20.6653 3.86565 15.8824 5.11133C10.2353 1.34662 7.64706 2.0525 7.64706 2.0525C6.5776 4.4328 6.49302 7.13948 7.41177 9.58192C5.45283 11.5991 4.35581 14.2995 4.35294 17.1113C4.35294 27.9349 10.7059 30.5231 17.2941 31.229C15.8824 32.6407 15.8824 34.0525 16.1176 35.9349V44.1701" stroke="white" stroke-width="3" stroke-linecap="round" stroke-linejoin="round"/>
</svg>
