<svg width="93" height="86" viewBox="0 0 93 86" fill="none" xmlns="http://www.w3.org/2000/svg">
<circle cx="18.5" cy="18.5" r="18.5" fill="#EFB43E"/>
<path d="M45 21.9516V15.0484C45 12.511 46.9005 10.3759 49.4208 10.082L87.4208 5.65062C90.3916 5.30418 93 7.62603 93 10.617V26.383C93 29.374 90.3916 31.6958 87.4208 31.3494L49.4208 26.918C46.9006 26.6241 45 24.489 45 21.9516Z" fill="#4BACDB"/>
<path d="M49 85.9984C19.4526 86.2118 8.33405 64.7206 5.64382 50.232C5.12006 47.4112 7.41269 45 10.2817 45H87.714C90.5846 45 92.8774 47.4148 92.3421 50.235C89.6274 64.5387 78.4963 85.7854 49 85.9984Z" fill="#065EA2"/>
</svg>
