<svg width="45" height="45" viewBox="0 0 45 45" fill="none" xmlns="http://www.w3.org/2000/svg">
<circle cx="22.5" cy="22.5" r="21.5" transform="matrix(-1 0 0 1 45 0)" stroke="#065EA2" stroke-width="2"/>
<path d="M10 24C9.44772 24 9 23.5523 9 23C9 22.4477 9.44772 22 10 22L10 24ZM35.7071 22.2929C36.0976 22.6834 36.0976 23.3166 35.7071 23.7071L29.3431 30.0711C28.9526 30.4616 28.3195 30.4616 27.9289 30.0711C27.5384 29.6805 27.5384 29.0474 27.9289 28.6569L33.5858 23L27.9289 17.3431C27.5384 16.9526 27.5384 16.3195 27.9289 15.9289C28.3195 15.5384 28.9526 15.5384 29.3431 15.9289L35.7071 22.2929ZM10 22L35 22L35 24L10 24L10 22Z" fill="#065EA2"/>
</svg>
