<svg width="45" height="45" viewBox="0 0 45 45" fill="none" xmlns="http://www.w3.org/2000/svg">
<circle cx="22.5" cy="22.5" r="21.5" stroke="#065EA2" stroke-width="2"/>
<path d="M35 24C35.5523 24 36 23.5523 36 23C36 22.4477 35.5523 22 35 22L35 24ZM9.29289 22.2929C8.90237 22.6834 8.90237 23.3166 9.29289 23.7071L15.6569 30.0711C16.0474 30.4616 16.6805 30.4616 17.0711 30.0711C17.4616 29.6805 17.4616 29.0474 17.0711 28.6569L11.4142 23L17.0711 17.3431C17.4616 16.9526 17.4616 16.3195 17.0711 15.9289C16.6805 15.5384 16.0474 15.5384 15.6569 15.9289L9.29289 22.2929ZM35 22L10 22L10 24L35 24L35 22Z" fill="#065EA2"/>
</svg>
